# xmcd CD database file
#
# Track frame offsets:
#	150
#	19820
#	42037
#	58512
#	74875
#	90742
#	108140
#	129110
#	147225
#	158735
#	174257
#	191080
#	205417
#	223445
#	244442
#	262527
#	282532
#	295877
#
# Disc length: 4196 seconds
#
# Revision: 0
# Processed by: cddbd v1.5.1PL0 Copyright (c) Steve Scherf et al.
# Submitted via: CDex 1.51
#
DISCID=13106212
DTITLE=石川セリ - ときどき私は…/気まぐれ
DYEAR=1977
DGENRE=JPop
TTITLE0=Introduction〜朝焼けが消える前に
TTITLE1=霧の桟橋
TTITLE2=ときどき私は……
TTITLE3=虹のひと部屋
TTITLE4=なんとなく……
TTITLE5=さよならの季節
TTITLE6=ひとり芝居
TTITLE7=SEXY
TTITLE8=フワフワ・WOW・WOW
TTITLE9=遠い海の記憶
TTITLE10=Moonlight Surfer
TTITLE11=ひとりぼっちの日曜日
TTITLE12=昨日はもう
TTITLE13=Midnight Love Call
TTITLE14=ダンスはうまく踊れない
TTITLE15=すれ違いHighway
TTITLE16=Flight
TTITLE17=気まぐれ
EXTD=YEAR: 1977
EXTT0=
EXTT1=
EXTT2=
EXTT3=
EXTT4=
EXTT5=
EXTT6=
EXTT7=
EXTT8=
EXTT9=
EXTT10=
EXTT11=
EXTT12=
EXTT13=
EXTT14=
EXTT15=
EXTT16=
EXTT17=
PLAYORDER=
